<svg id="Layer_1" data-name="Layer 1" xmlns="http://www.w3.org/2000/svg" viewBox="0 0 198.07 326.3"><defs><style>.cls-1{font-size:12px;}.cls-1,.cls-21,.cls-23{fill:#231f20;}.cls-1,.cls-23{font-family:Helvetica-Bold, Helvetica;font-weight:700;}.cls-2{letter-spacing:-0.05em;}.cls-3{letter-spacing:-0.07em;}.cls-4{fill:#32a354;}.cls-5{fill:#e8e8e8;}.cls-6{fill:#c8e3bb;}.cls-7{fill:#88c981;}.cls-8{fill:#3182be;}.cls-9{fill:#de2f27;}.cls-10{fill:#fbb463;}.cls-11{fill:#f47f72;}.cls-12{fill:#dcdcdc;}.cls-13{fill:#b4d66c;}.cls-14{fill:#bc80b7;}.cls-15{fill:#feec6e;}.cls-16{fill:#f5d4e5;}.cls-17{fill:#79cab9;}.cls-18{fill:#828282;}.cls-19{fill:#a7cee2;}.cls-20{fill:#e1e88a;}.cls-21{font-size:10px;font-family:Helvetica;}.cls-22{letter-spacing:-0.04em;}.cls-23{font-size:14px;}</style></defs><text class="cls-1" transform="translate(0 37.48)"><tspan class="cls-2">V</tspan><tspan x="7.35" y="0">egetation type:</tspan></text><text class="cls-1" transform="translate(0 129.9)"><tspan class="cls-3">T</tspan><tspan x="6.45" y="0">enure split:</tspan></text><text class="cls-1" transform="translate(0 186.9)">Land-use split/<tspan class="cls-2" x="84.67" y="0">T</tspan><tspan x="91.35" y="0">ree land-use split:</tspan></text><text x="-14.86" y="-12.94"/><rect class="cls-4" x="1.97" y="44.59" width="14.29" height="14.29"/><rect class="cls-5" x="1.97" y="95.22" width="14.29" height="14.29"/><rect class="cls-6" x="1.97" y="78.34" width="14.29" height="14.29"/><rect class="cls-7" x="1.97" y="61.46" width="14.29" height="14.29"/><rect class="cls-8" x="1.97" y="135.91" width="14.29" height="14.29"/><rect class="cls-9" x="1.97" y="152.79" width="14.29" height="14.29"/><rect class="cls-10" x="1.97" y="202.26" width="14.29" height="14.29"/><rect class="cls-11" x="1.97" y="252.89" width="14.29" height="14.29"/><rect class="cls-12" x="1.97" y="236.01" width="14.29" height="14.29"/><rect class="cls-13" x="1.97" y="219.14" width="14.29" height="14.29"/><rect class="cls-14" x="1.97" y="269.77" width="14.29" height="14.29"/><rect class="cls-15" x="93.2" y="202.26" width="14.29" height="14.29"/><rect class="cls-16" x="93.2" y="236.01" width="14.29" height="14.29"/><rect class="cls-17" x="93.2" y="219.14" width="14.29" height="14.29"/><rect class="cls-18" x="93.2" y="252.89" width="14.29" height="14.29"/><rect class="cls-19" x="1.97" y="286.64" width="14.29" height="14.29"/><rect class="cls-20" x="93.2" y="269.77" width="14.29" height="14.29"/><text class="cls-21" transform="translate(20.74 56.13)"><tspan class="cls-22">T</tspan><tspan x="5.74" y="0">ree</tspan></text><text class="cls-21" transform="translate(20.74 72.24)">Shrub</text><text class="cls-21" transform="translate(20.74 88.06)">Grass</text><text class="cls-21" transform="translate(20.74 106.36)">Non-vegetation</text><text class="cls-21" transform="translate(20.74 148.33)">Public land</text><text class="cls-21" transform="translate(20.74 163.93)">Private land</text><text class="cls-21" transform="translate(20.74 213.66)">Residential</text><text class="cls-21" transform="translate(20.74 230.01)">Parkland</text><text class="cls-21" transform="translate(20.74 247.27)">Infrastructure</text><text class="cls-21" transform="translate(20.74 264.08)">Other</text><text class="cls-21" transform="translate(20.74 281.23)">Industrial</text><text class="cls-21" transform="translate(20.74 297.58)"><tspan class="cls-22">W</tspan><tspan x="9.07" y="0">ater</tspan></text><text class="cls-21" transform="translate(113.04 213.66)">Education</text><text class="cls-21" transform="translate(113.04 230.81)">Commercial</text><text class="cls-21" transform="translate(113.04 247.2)">Hospital</text><text class="cls-21" transform="translate(113.04 264.35)"><tspan class="cls-22">T</tspan><tspan x="5.74" y="0">ransport</tspan></text><text class="cls-21" transform="translate(113.04 280.71)">Primary Production</text><text class="cls-23" transform="translate(84.94 12.04)">Legend</text></svg>