<?xml version="1.0" encoding="utf-8"?>
<!-- Generator: Adobe Illustrator 24.2.3, SVG Export Plug-In . SVG Version: 6.00 Build 0)  -->
<svg version="1.1" id="Layer_1" xmlns="http://www.w3.org/2000/svg" xmlns:xlink="http://www.w3.org/1999/xlink" x="0px" y="0px"
	 viewBox="0 0 198.1 326.3" style="enable-background:new 0 0 198.1 326.3;" xml:space="preserve">
<style type="text/css">
	.st0{fill:#231F20;}
	.st1{font-family:'Helvetica-Bold';}
	.st2{font-size:12px;}
	.st3{fill:#32A354;}
	.st4{fill:#E8E8E8;}
	.st5{fill:#C8E3BB;}
	.st6{fill:#88C981;}
	.st7{fill:#3182BE;}
	.st8{fill:#DE2F27;}
	.st9{fill:#FBB463;}
	.st10{fill:#F47F72;}
	.st11{fill:#DCDCDC;}
	.st12{fill:#B4D66C;}
	.st13{fill:#BC80B7;}
	.st14{fill:#FEEC6E;}
	.st15{fill:#F5D4E5;}
	.st16{fill:#79CAB9;}
	.st17{fill:#828282;}
	.st18{fill:#A7CEE2;}
	.st19{fill:#E1E88A;}
	.st20{font-family:'Helvetica';}
	.st21{font-size:10px;}
	.st22{font-size:14px;}
	.st23{fill:#F5F5B9;}
</style>
<text transform="matrix(1 0 0 1 0 37.48)" class="st0 st1 st2">V</text>
<text transform="matrix(1 0 0 1 7.35 37.48)" class="st0 st1 st2">egetation type:</text>
<text transform="matrix(1 0 0 1 0 129.9)" class="st0 st1 st2">T</text>
<text transform="matrix(1 0 0 1 6.45 129.9)" class="st0 st1 st2">enure split:</text>
<text transform="matrix(1 0 0 1 0 186.9)" class="st0 st1 st2">Land-use split/</text>
<text transform="matrix(1 0 0 1 84.67 186.9)" class="st0 st1 st2">T</text>
<text transform="matrix(1 0 0 1 91.35 186.9)" class="st0 st1 st2">ree land-use split:</text>
<rect x="2" y="44.6" class="st3" width="14.3" height="14.3"/>
<rect x="2" y="95.2" class="st4" width="14.3" height="14.3"/>
<rect x="2" y="78.3" class="st5" width="14.3" height="14.3"/>
<rect x="2" y="61.5" class="st6" width="14.3" height="14.3"/>
<rect x="2" y="135.9" class="st7" width="14.3" height="14.3"/>
<rect x="2" y="152.8" class="st8" width="14.3" height="14.3"/>
<rect x="2" y="202.3" class="st9" width="14.3" height="14.3"/>
<rect x="2" y="252.9" class="st10" width="14.3" height="14.3"/>
<rect x="2" y="236" class="st11" width="14.3" height="14.3"/>
<rect x="2" y="219.1" class="st12" width="14.3" height="14.3"/>
<rect x="2" y="269.8" class="st13" width="14.3" height="14.3"/>
<rect x="93.2" y="202.3" class="st14" width="14.3" height="14.3"/>
<rect x="93.2" y="236" class="st15" width="14.3" height="14.3"/>
<rect x="93.2" y="219.1" class="st16" width="14.3" height="14.3"/>
<rect x="93.2" y="252.9" class="st17" width="14.3" height="14.3"/>
<rect x="2" y="286.6" class="st18" width="14.3" height="14.3"/>
<rect x="93.2" y="269.8" class="st19" width="14.3" height="14.3"/>
<text transform="matrix(1 0 0 1 20.74 56.13)" class="st0 st20 st21">T</text>
<text transform="matrix(1 0 0 1 26.48 56.13)" class="st0 st20 st21">ree</text>
<text transform="matrix(1 0 0 1 20.74 72.24)" class="st0 st20 st21">Shrub</text>
<text transform="matrix(1 0 0 1 20.74 88.06)" class="st0 st20 st21">Grass</text>
<text transform="matrix(1 0 0 1 20.74 106.36)" class="st0 st20 st21">Non-vegetation</text>
<text transform="matrix(1 0 0 1 20.74 148.33)" class="st0 st20 st21">Public land</text>
<text transform="matrix(1 0 0 1 20.74 163.93)" class="st0 st20 st21">Private land</text>
<text transform="matrix(1 0 0 1 20.74 213.66)" class="st0 st20 st21">Residential</text>
<text transform="matrix(1 0 0 1 20.74 230.01)" class="st0 st20 st21">Parkland</text>
<text transform="matrix(1 0 0 1 20.74 247.27)" class="st0 st20 st21">Infrastructure</text>
<text transform="matrix(1 0 0 1 20.74 264.08)" class="st0 st20 st21">Other</text>
<text transform="matrix(1 0 0 1 20.74 281.23)" class="st0 st20 st21">Industrial</text>
<text transform="matrix(1 0 0 1 20.74 297.58)" class="st0 st20 st21">W</text>
<text transform="matrix(1 0 0 1 29.81 297.58)" class="st0 st20 st21">ater</text>
<text transform="matrix(1 0 0 1 113.04 213.66)" class="st0 st20 st21">Education</text>
<text transform="matrix(1 0 0 1 113.04 230.81)" class="st0 st20 st21">Commercial</text>
<text transform="matrix(1 0 0 1 113.04 247.2)" class="st0 st20 st21">Hospital</text>
<text transform="matrix(1 0 0 1 113.04 264.35)" class="st0 st20 st21">T</text>
<text transform="matrix(1 0 0 1 118.78 264.35)" class="st0 st20 st21">ransport</text>
<text transform="matrix(1 0 0 1 113.04 280.71)" class="st0 st20 st21">Primary Production</text>
<text transform="matrix(1 0 0 1 84.94 12.04)" class="st0 st1 st22">Legend</text>
<rect x="93.2" y="135.9" class="st23" width="14.3" height="14.3"/>
<text transform="matrix(1 0 0 1 111.97 148.33)" class="st0 st20 st21">Other</text>
</svg>
